<svg width="1440" height="1024" viewBox="0 0 1440 1024" fill="none" xmlns="http://www.w3.org/2000/svg">
<path d="M-342.438 11.1967L-460.862 453.16C-460.862 453.16 -509 632.815 -329.345 680.953C-149.691 729.091 -101.553 549.437 -101.553 549.437L16.871 107.473" stroke="#1E1E1E" stroke-width="140"/>
<path d="M376.18 203.75L257.756 645.713C257.756 645.713 209.618 825.368 389.272 873.506C568.926 921.644 617.065 741.99 617.065 741.99L735.489 300.026" stroke="#1E1E1E" stroke-width="140"/>
<path d="M263.796 623.171L382.22 181.207C382.22 181.207 430.358 1.55306 250.704 -46.5852C71.0494 -94.7234 22.9111 84.931 22.9111 84.931L-95.5126 526.894" stroke="#1E1E1E" stroke-width="140"/>
<path d="M982.414 815.724L1100.84 373.76C1100.84 373.76 1148.98 194.106 969.321 145.968C789.667 97.8296 741.529 277.484 741.529 277.484L623.105 719.447" stroke="#1E1E1E" stroke-width="140"/>
<path d="M1094.8 396.303L976.374 838.266C976.374 838.266 928.235 1017.92 1107.89 1066.06C1287.54 1114.2 1335.68 934.543 1335.68 934.543L1454.11 492.579" stroke="#1E1E1E" stroke-width="140"/>
<path d="M1701.03 1008.28L1819.46 566.314C1819.46 566.314 1867.59 386.659 1687.94 338.521C1508.28 290.383 1460.15 470.037 1460.15 470.037L1341.72 912.001" stroke="#1E1E1E" stroke-width="140"/>
</svg>
